<svg width="375" height="667" viewBox="0 0 375 667" fill="none" xmlns="http://www.w3.org/2000/svg">
<path opacity="0.28" d="M-103.275 505.973L229.009 656.389L256.506 645.925L-59.9833 499.862L-103.275 505.973Z" fill="black"/>
<path d="M291.369 90.0896L221.92 81.7102L223.426 66.5133L293.077 75.6125L291.369 90.0896Z" fill="#F5F5F5"/>
<path d="M235.613 88.2617L177.579 85.4834L180.783 59.1392L237.082 65.1268C238.531 68.8469 239.202 72.8248 239.052 76.8144C238.951 80.8692 237.763 84.8225 235.613 88.2617Z" fill="#F5F5F5"/>
<path d="M185.697 72.8896C185.157 80.1523 181.751 85.8411 178.36 85.5569C174.969 85.2728 172.237 79.2787 172.794 71.9128C173.351 64.547 176.74 58.9612 180.139 59.1939C183.539 59.4265 186.238 65.6268 185.697 72.8896Z" fill="#DBDBDB"/>
<path d="M290.46 91.4209L348.476 94.5707L350.904 68.6775L292.552 69.8132C290.731 73.3663 288.463 75.6988 288.206 79.6829C287.893 83.7268 288.672 87.7805 290.46 91.4209Z" fill="#F5F5F5"/>
<path d="M356.556 82.4013C356.016 89.664 352.61 95.3528 349.219 95.0686C345.828 94.7844 343.096 88.7904 343.653 81.4245C344.21 74.0587 347.599 68.4729 350.998 68.7056C354.398 68.9382 357.096 75.1385 356.556 82.4013Z" fill="#DBDBDB"/>
<path d="M227.482 78.3791L230.372 90.5858C230.515 91.2206 230.518 91.8789 230.382 92.5152C230.246 93.1515 229.972 93.7506 229.581 94.2708C229.19 94.7911 228.691 95.22 228.118 95.5281C227.544 95.8361 226.911 96.0159 226.261 96.0548C214.902 96.6497 188.546 98.097 178.317 98.2402C174.042 96.2267 169.706 97.5346 169.348 101.707C168.991 105.88 173.451 109.033 180.408 104.924C182.864 103.47 218.933 103.436 235.626 103.545C236.613 103.549 237.588 103.325 238.475 102.891C239.362 102.456 240.137 101.824 240.739 101.041C241.342 100.258 241.755 99.3475 241.948 98.379C242.141 97.4105 242.108 96.4107 241.852 95.457L237.293 78.8558L227.482 78.3791Z" fill="#F5F5F5"/>
<path d="M272.704 81.2526C273.013 81.3026 288.136 81.6337 289.747 84.7498C291.358 87.8659 290.966 95.5228 292.428 96.2882C293.891 97.0535 322.498 103.268 324.842 105.445C326.207 105.05 327.67 105.184 328.939 105.82C330.209 106.457 331.191 107.549 331.69 108.879C334.116 113.819 326.963 116.522 325.137 115.064C317.903 110.637 309.928 107.555 301.597 105.968C296.555 106.063 291.515 105.726 286.531 104.958C285.456 104.414 266.701 82.0793 266.701 82.0793L272.704 81.2526Z" fill="#F5F5F5"/>
<path d="M237.089 392.982L261.27 394.197L259.714 415.256L236.883 414.524L237.089 392.982Z" fill="#F5F5F5"/>
<path d="M249.391 505.226C249.391 505.226 258.357 506.677 258.137 521.765C258.313 527.65 257.962 533.539 257.089 539.362L269.615 542.34C271.177 533.255 271.784 524.031 271.423 514.819C270.041 505.711 263.527 493.024 255.131 488.705C255.131 488.705 245.848 496.404 249.391 505.226Z" fill="#F5F5F5"/>
<path d="M237.177 465.337L236.269 505.273L253.158 507.106L258.686 466.067L237.177 465.337Z" fill="#E7E7E7"/>
<path d="M237.318 415.757L237.206 466.133L259.401 468.507C259.401 468.507 261.745 459.579 258.27 456.215L260.302 416.197L237.318 415.757Z" fill="#F5F5F5"/>
<path d="M262.427 413.527L261.974 419.27L233.427 418.565L233.467 412.438L262.427 413.527Z" fill="#E7E7E7"/>
<path d="M258.383 391.458L239.345 390.81L253.879 82.3848L271.127 83.9589L258.383 391.458Z" fill="#F5F5F5"/>
<path d="M300.482 588.845C300.607 627.625 278.993 658.923 246.186 659.062C213.378 659.202 187.773 631.158 184.779 591.808C181.484 546.803 208.04 518.949 240.848 518.81C273.655 518.67 300.357 550.064 300.482 588.845Z" fill="#E7E7E7"/>
<path d="M272.069 590.909C272.182 616.362 257.974 636.855 236.494 636.923C215.014 636.991 198.201 618.672 196.293 592.875C194.04 563.322 211.529 545.105 233.009 545.037C254.489 544.969 271.999 565.516 272.069 590.909Z" fill="#231F20"/>
<path d="M264.688 590.775C264.754 611.937 253.257 628.743 235.33 628.752C217.403 628.76 203.712 613.696 202.082 592.386C200.267 567.98 214.698 552.97 232.428 552.877C250.157 552.784 264.647 569.775 264.688 590.775Z" fill="#414042"/>
<path d="M256.595 590.788C256.661 606.398 247.968 618.951 234.795 618.988C221.622 619.026 211.33 607.79 210.131 591.996C208.774 573.904 219.465 562.731 232.647 562.642C245.828 562.553 256.573 575.238 256.595 590.788Z" fill="#231F20"/>
<path d="M171.133 533.972C173.087 533.336 196.718 529.121 201.2 525.933C199.471 523.929 197.425 522.223 195.143 520.882C186.431 515.242 180.171 510.792 48.1793 454.276C32.107 447.393 17.2853 443.567 -0.60778 409.368C-18.5009 375.169 -26.9185 362.809 -66.0295 362.034C-80.9224 361.645 -95.8241 362.327 -110.619 364.075C-97.5154 365.771 -72.8232 371.67 -64.1797 391.787C-52.1952 419.689 -49.6453 452.305 22.9854 479.918C95.6161 507.531 168.1 535.068 171.133 533.972Z" fill="#E49401"/>
<path d="M232.985 387.296L232.656 402.736L263.985 403.891L264.924 388.602L232.985 387.296Z" fill="#E7E7E7"/>
<path d="M240.29 423.535C240.29 423.535 195.802 441.614 156.745 515.038C164.486 520.418 173.45 523.776 182.82 524.808C182.82 524.808 203.24 487.818 240.148 471.156L240.29 423.535Z" fill="#E7E7E7"/>
<path d="M-12.1354 461.014L-25.4538 452.144C-24.6608 439.102 -28.8275 426.242 -37.1184 416.143C-45.4094 406.045 -57.2117 399.453 -70.1586 397.692C-84.0987 395.436 -98.3637 398.811 -109.815 407.074C-121.267 415.337 -128.967 427.81 -131.223 441.75C-132.511 448.421 -132.43 455.285 -130.983 461.924C-129.536 468.562 -126.754 474.838 -122.807 480.368C-118.859 485.898 -113.828 490.568 -108.02 494.093C-102.211 497.618 -95.7464 499.926 -89.0184 500.875C-79.0136 502.507 -68.75 501.19 -59.4808 497.086C-48.5343 498.064 -26.0269 501.123 -20.4555 496.102C-12.7304 489.209 -12.1354 461.014 -12.1354 461.014Z" fill="#E7E7E7"/>
<path d="M151.267 528.642L148.908 543.225L116.197 554.537L-15.4313 505.905L-10.5214 475.554L151.267 528.642Z" fill="#E7E7E7"/>
<path opacity="0.28" d="M146.945 543.913L136.613 547.635L140.731 522.179L150.213 523.713L146.945 543.913Z" fill="black"/>
<path opacity="0.28" d="M107.066 551.156L116.196 554.537L123.255 552.083L128.265 521.113L112.751 516.013L107.066 551.156Z" fill="black"/>
<path d="M173.071 542.905L201.419 536.015L202.452 529.626C202.452 529.626 203.872 526.735 195.108 521.087C186.345 515.439 180.136 510.998 48.145 454.482C32.0728 447.598 17.2511 443.773 -0.642041 409.574C-18.5352 375.375 -26.9528 363.014 -66.0637 362.24C-82.1294 361.792 -98.2039 362.73 -114.108 365.044C-103.63 384.929 -108.33 407.118 -120.139 452.006C-116.503 462.218 -104.228 466.425 -94.2528 465.236C-81.6755 469.861 -65.9853 472.241 -55.7852 462.469C-46.4915 467.78 157.738 545.183 173.071 542.905Z" fill="#FFA500"/>
<path d="M201.593 534.934L202.427 529.781C202.427 529.781 170.169 538.946 169.833 538.733C73.3937 506.951 9.29275 482.833 -88.2241 441.041C-92.527 456.526 -116.813 438.637 -117.141 440.012C-118.135 443.87 -119.215 447.926 -120.335 452.239C-116.699 462.451 -104.424 466.658 -94.4495 465.469C-81.8723 470.095 -66.1822 472.474 -55.9821 462.702C-46.5172 467.935 157.236 544.362 168.796 546.126L201.393 536.17L201.568 535.088L201.593 534.934Z" fill="#E49401"/>
<path d="M240.148 451.539L240.331 423.279C240.331 423.279 195.844 441.358 156.786 514.781C160.347 517.175 164.12 519.237 168.058 520.941C186.671 492.77 211.291 469.069 240.148 451.539Z" fill="#F5F5F5"/>
<path d="M167.852 520.908C172.52 523.021 177.54 524.246 182.656 524.519C182.656 524.519 203.076 487.529 239.984 470.867L240.149 451.54C211.22 469.036 186.529 492.727 167.852 520.908Z" fill="#E7E7E7"/>
<path d="M246.131 503.8C246.131 503.8 232.517 519.312 232.572 530.743C232.899 563.37 234.324 583.324 234.232 583.891C229.836 584.801 225.388 585.441 220.914 585.808C220.914 585.808 217.702 543.884 218.282 528.855C218.702 517.765 223.153 490.248 240.811 487.657C242.398 488.151 243.845 489.017 245.031 490.182C246.216 491.348 247.106 492.78 247.627 494.359C248.147 495.938 248.283 497.619 248.023 499.261C247.763 500.903 247.114 502.459 246.131 503.8Z" fill="#F5F5F5"/>
<path d="M233.988 581.155C235.683 583.364 236.464 586.141 236.17 588.911C235.795 591.437 234.459 593.721 232.442 595.288C230.896 595.038 228.321 594.938 226.088 594.683C220.869 594.261 218.376 591.69 218.588 587.441C218.799 583.192 221.048 579.749 225.066 580.082C228.057 580.278 231.035 580.636 233.988 581.155Z" fill="#414042"/>
<path d="M230.542 587.419C230.327 588.635 229.766 589.763 228.927 590.668C228.087 591.573 227.004 592.217 225.808 592.522C224.611 592.827 223.352 592.781 222.181 592.389C221.011 591.997 219.978 591.276 219.206 590.312C218.435 589.348 217.958 588.182 217.832 586.954C217.707 585.725 217.938 584.487 218.499 583.386C219.059 582.286 219.925 581.371 220.992 580.75C222.059 580.13 223.283 579.83 224.516 579.887C226.306 580.104 227.94 581.014 229.067 582.422C230.194 583.831 230.723 585.624 230.542 587.419Z" fill="#A7A9AC"/>
</svg>
